# xmcd CD database file
#
# Track frame offsets:
#	150
#	9002
#	20656
#	32560
#	44994
#	58540
#	71962
#	84256
#	96592
#	109266
#	120558
#	136604
#	151699
#	162131
#	176610
#	193083
#	205275
#	221914
#	239746
#	256195
#	271524
#	284640
#	297690
#	312921
#	328008
#
# Disc length: 4595 seconds
#
# Revision: 0
# Processed by: cddbd v1.5.2PL0 Copyright (c) Steve Scherf et al.
# Submitted via: CDex 1.70beta2
#
DISCID=7711f119
DTITLE=Hank Jones - The Talented Touch
DYEAR=1958
DGENRE=Jazz
TTITLE0=If I Love Again
TTITLE1=My One and Only Love
TTITLE2=Don't Ever Leave Me
TTITLE3=It's Easy to Remember
TTITLE4=You Are My Love
TTITLE5=Blue Lights
TTITLE6=The Blue Room
TTITLE7=A Sunday Kind of Love
TTITLE8=Star Eyes
TTITLE9=Let Me Know
TTITLE10=Try a Little Tenderness
TTITLE11=Easy to Love
TTITLE12=Hallelujah!
TTITLE13=Do Nothing Till You Hear From Me
TTITLE14=Polka Dots and Moonbeams
TTITLE15=Ain't We Got Fun
TTITLE16=Blues for Sal
TTITLE17=Minor's Club
TTITLE18=Walk Chicken Walk with Your Head Picked Bald to the Bone
TTITLE19=They Look Alike
TTITLE20=Out of Braith
TTITLE21=Ruby, My Dear
TTITLE22=The Legal Nod
TTITLE23=Koolin' in the Kitchen
TTITLE24=Koolin'
EXTD=YEAR: 1958
EXTT0=
EXTT1=
EXTT2=
EXTT3=
EXTT4=
EXTT5=
EXTT6=
EXTT7=
EXTT8=
EXTT9=
EXTT10=
EXTT11=
EXTT12=
EXTT13=
EXTT14=
EXTT15=
EXTT16=
EXTT17=
EXTT18=
EXTT19=
EXTT20=
EXTT21=
EXTT22=
EXTT23=
EXTT24=
PLAYORDER=
